<?xml version="1.0" encoding="UTF-8" standalone="no"?><svg xmlns="http://www.w3.org/2000/svg" xmlns:xlink="http://www.w3.org/1999/xlink" contentStyleType="text/css" height="640.625px" preserveAspectRatio="none" style="width:582px;height:640px;background:#FFFFFF;" version="1.1" viewBox="0 0 582 640" width="582.0313px" zoomAndPan="magnify"><defs/><g><!--MD5=[c251b62818238b6f79269adc5bf7d1e2]
entity cli--><g id="elem_cli"><path d="M232.4219,235.026 L232.4219,277.4862 A3.2552,3.2552 0 0 0 235.6771,280.7414 L272.1354,280.7414 A3.2552,3.2552 0 0 0 275.3906,277.4862 L275.3906,244.7917 L262.3698,231.7708 L235.6771,231.7708 A3.2552,3.2552 0 0 0 232.4219,235.026 " fill="#F1F1F1" style="stroke:#181818;stroke-width:0.6510416666666666;"/><path d="M262.3698,231.7708 L262.3698,241.5365 A3.2552,3.2552 0 0 0 265.625,244.7917 L275.3906,244.7917 " fill="#F1F1F1" style="stroke:#181818;stroke-width:0.6510416666666666;"/><text fill="#000000" font-family="sans-serif" font-size="18.2292" lengthAdjust="spacing" textLength="16.9271" x="245.4427" y="263.7151">cli</text></g><!--MD5=[0d482ad21d5c7c11aa976e45da5ecfe6]
entity core--><g id="elem_core"><path d="M411.4583,11.0677 L411.4583,53.5278 A3.2552,3.2552 0 0 0 414.7135,56.783 L470.7031,56.783 A3.2552,3.2552 0 0 0 473.9583,53.5278 L473.9583,20.8333 L460.9375,7.8125 L414.7135,7.8125 A3.2552,3.2552 0 0 0 411.4583,11.0677 " fill="#F1F1F1" style="stroke:#181818;stroke-width:0.6510416666666666;"/><path d="M460.9375,7.8125 L460.9375,17.5781 A3.2552,3.2552 0 0 0 464.1927,20.8333 L473.9583,20.8333 " fill="#F1F1F1" style="stroke:#181818;stroke-width:0.6510416666666666;"/><text fill="#000000" font-family="sans-serif" font-size="18.2292" lengthAdjust="spacing" textLength="36.4583" x="424.4792" y="39.7568">core</text></g><!--MD5=[85b6099c7cda4d2f2a0fa0e6faa327d6]
entity example--><g id="elem_example"><path d="M292.9688,586.5885 L292.9688,629.0487 A3.2552,3.2552 0 0 0 296.224,632.3039 L383.4635,632.3039 A3.2552,3.2552 0 0 0 386.7188,629.0487 L386.7188,596.3542 L373.6979,583.3333 L296.224,583.3333 A3.2552,3.2552 0 0 0 292.9688,586.5885 " fill="#F1F1F1" style="stroke:#181818;stroke-width:0.6510416666666666;"/><path d="M373.6979,583.3333 L373.6979,593.099 A3.2552,3.2552 0 0 0 376.9531,596.3542 L386.7188,596.3542 " fill="#F1F1F1" style="stroke:#181818;stroke-width:0.6510416666666666;"/><text fill="#000000" font-family="sans-serif" font-size="18.2292" lengthAdjust="spacing" textLength="67.7083" x="305.9896" y="615.2776">example</text></g><!--MD5=[7c4ccd64f60ca431f8e2a812e87e27b0]
entity language--><g id="elem_language"><path d="M311.849,110.026 L311.849,152.4862 A3.2552,3.2552 0 0 0 315.1042,155.7414 L411.4583,155.7414 A3.2552,3.2552 0 0 0 414.7135,152.4862 L414.7135,119.7917 L401.6927,106.7708 L315.1042,106.7708 A3.2552,3.2552 0 0 0 311.849,110.026 " fill="#F1F1F1" style="stroke:#181818;stroke-width:0.6510416666666666;"/><path d="M401.6927,106.7708 L401.6927,116.5365 A3.2552,3.2552 0 0 0 404.9479,119.7917 L414.7135,119.7917 " fill="#F1F1F1" style="stroke:#181818;stroke-width:0.6510416666666666;"/><text fill="#000000" font-family="sans-serif" font-size="18.2292" lengthAdjust="spacing" textLength="76.8229" x="324.8698" y="138.7151">language</text></g><!--MD5=[cb3d66c929489a99ecf6c8633ae21583]
entity react--><g id="elem_react"><path d="M471.3542,172.526 L471.3542,214.9862 A3.2552,3.2552 0 0 0 474.6094,218.2414 L535.8073,218.2414 A3.2552,3.2552 0 0 0 539.0625,214.9862 L539.0625,182.2917 L526.0417,169.2708 L474.6094,169.2708 A3.2552,3.2552 0 0 0 471.3542,172.526 " fill="#F1F1F1" style="stroke:#181818;stroke-width:0.6510416666666666;"/><path d="M526.0417,169.2708 L526.0417,179.0365 A3.2552,3.2552 0 0 0 529.2969,182.2917 L539.0625,182.2917 " fill="#F1F1F1" style="stroke:#181818;stroke-width:0.6510416666666666;"/><text fill="#000000" font-family="sans-serif" font-size="18.2292" lengthAdjust="spacing" textLength="41.6667" x="484.375" y="201.2151">react</text></g><!--MD5=[b23c829cf79f116574003edef1394955]
entity typescript--><g id="elem_typescript"><path d="M7.8125,396.4844 L7.8125,438.9445 A3.2552,3.2552 0 0 0 11.0677,442.1997 L166.0156,442.1997 A3.2552,3.2552 0 0 0 169.2708,438.9445 L169.2708,406.25 L156.25,393.2292 L11.0677,393.2292 A3.2552,3.2552 0 0 0 7.8125,396.4844 " fill="#F1F1F1" style="stroke:#181818;stroke-width:0.6510416666666666;"/><path d="M156.25,393.2292 L156.25,402.9948 A3.2552,3.2552 0 0 0 159.5052,406.25 L169.2708,406.25 " fill="#F1F1F1" style="stroke:#181818;stroke-width:0.6510416666666666;"/><text fill="#000000" font-family="sans-serif" font-size="18.2292" lengthAdjust="spacing" textLength="135.4167" x="20.8333" y="425.1734">typescript-plugin</text></g><!--MD5=[e471774e408662c8c76c34a7f54356b8]
entity vscode--><g id="elem_vscode"><path d="M157.5521,333.9844 L157.5521,376.4445 A3.2552,3.2552 0 0 0 160.8073,379.6997 L323.5677,379.6997 A3.2552,3.2552 0 0 0 326.8229,376.4445 L326.8229,343.75 L313.8021,330.7292 L160.8073,330.7292 A3.2552,3.2552 0 0 0 157.5521,333.9844 " fill="#F1F1F1" style="stroke:#181818;stroke-width:0.6510416666666666;"/><path d="M313.8021,330.7292 L313.8021,340.4948 A3.2552,3.2552 0 0 0 317.0573,343.75 L326.8229,343.75 " fill="#F1F1F1" style="stroke:#181818;stroke-width:0.6510416666666666;"/><text fill="#000000" font-family="sans-serif" font-size="18.2292" lengthAdjust="spacing" textLength="143.2292" x="170.5729" y="362.6734">vscode-extension</text></g><!--MD5=[83d7c66368a3272c2ae5778d39252274]
entity webpack--><g id="elem_webpack"><path d="M315.1042,396.4844 L315.1042,438.9445 A3.2552,3.2552 0 0 0 318.3594,442.1997 L468.099,442.1997 A3.2552,3.2552 0 0 0 471.3542,438.9445 L471.3542,406.25 L458.3333,393.2292 L318.3594,393.2292 A3.2552,3.2552 0 0 0 315.1042,396.4844 " fill="#F1F1F1" style="stroke:#181818;stroke-width:0.6510416666666666;"/><path d="M458.3333,393.2292 L458.3333,402.9948 A3.2552,3.2552 0 0 0 461.5885,406.25 L471.3542,406.25 " fill="#F1F1F1" style="stroke:#181818;stroke-width:0.6510416666666666;"/><text fill="#000000" font-family="sans-serif" font-size="18.2292" lengthAdjust="spacing" textLength="130.2083" x="328.125" y="425.1734">webpack-loader</text></g><!--MD5=[8c837a6f1013bac8237ac5516895691b]
entity ide--><g id="elem_ide"><ellipse cx="242.1875" cy="494.7917" fill="#F1F1F1" rx="10.4167" ry="10.4167" style="stroke:#181818;stroke-width:0.6510416666666666;"/><text fill="#000000" font-family="sans-serif" font-size="18.2292" lengthAdjust="spacing" textLength="67.7083" x="208.3333" y="535.8505">VSCode</text></g><!--MD5=[7cd56da1083809541a68f000839df808]
link language to cli--><g id="link_language_cli"><path d="M342.1875,156.4063 C324.3359,176.3932 298.6849,205.1042 279.6224,226.4323 " fill="none" id="language-to-cli" style="stroke:#181818;stroke-width:1.3020833333333333;"/><polygon fill="#181818" points="274.9349,231.6797,286.6245,226.4062,279.2706,226.823,278.8537,219.4691,274.9349,231.6797" style="stroke:#181818;stroke-width:1.3020833333333333;"/><text fill="#000000" font-family="sans-serif" font-size="16.9271" lengthAdjust="spacing" textLength="59.8958" x="328.125" y="201.1655">used by</text></g><!--MD5=[7b9053a8e0e33e672301e41b6d580166]
link core to language--><g id="link_core_language"><path d="M411.0677,48.2552 C401.3281,53.9583 391.3021,61.3281 384.1146,70.3125 C377.4089,78.6979 372.7865,89.388 369.6354,99.401 " fill="none" id="core-to-language" style="stroke:#181818;stroke-width:1.3020833333333333;"/><polygon fill="#181818" points="367.6823,106.1979,375.9019,96.3544,369.4659,99.9366,365.8838,93.5006,367.6823,106.1979" style="stroke:#181818;stroke-width:1.3020833333333333;"/><text fill="#000000" font-family="sans-serif" font-size="16.9271" lengthAdjust="spacing" textLength="59.8958" x="385.4167" y="89.1864">used by</text></g><!--MD5=[66d434bbeba98c388e90af7d8e407c4b]
link cli to typescript--><g id="link_cli_typescript"><path d="M232.4219,265.612 C215.8984,272.0833 192.8516,282.1745 174.4792,294.2708 C154.2969,307.5651 148.9714,311.6536 134.1146,330.7292 C120.7161,347.9297 109.2318,369.6484 101.1458,386.9401 " fill="none" id="cli-to-typescript" style="stroke:#181818;stroke-width:1.3020833333333333;"/><polygon fill="#181818" points="98.3203,393.099,107.9432,384.6222,101.0368,387.1823,98.4766,380.2759,98.3203,393.099" style="stroke:#181818;stroke-width:1.3020833333333333;"/><text fill="#000000" font-family="sans-serif" font-size="16.9271" lengthAdjust="spacing" textLength="59.8958" x="175.7813" y="313.1447">used by</text></g><!--MD5=[b8c99a6eafbc1eea881ca2d036fda422]
link cli to vscode--><g id="link_cli_vscode"><path d="M251.0156,281.6276 C249.4531,294.4661 247.513,310.4297 245.8464,324.1146 " fill="none" id="cli-to-vscode" style="stroke:#181818;stroke-width:1.3020833333333333;"/><polygon fill="#181818" points="245.0521,330.625,251.662,319.6357,245.8527,324.164,241.3244,318.3547,245.0521,330.625" style="stroke:#181818;stroke-width:1.3020833333333333;"/><text fill="#000000" font-family="sans-serif" font-size="16.9271" lengthAdjust="spacing" textLength="59.8958" x="251.3021" y="313.1447">used by</text></g><!--MD5=[804732311676977b3a2fe8a3e83b7e7f]
link cli to webpack--><g id="link_cli_webpack"><path d="M275.9375,266.4453 C290.2995,272.7604 308.9063,282.3047 322.9167,294.2708 C352.0703,319.1667 371.862,359.349 382.8255,386.8359 " fill="none" id="cli-to-webpack" style="stroke:#181818;stroke-width:1.3020833333333333;"/><polygon fill="#181818" points="385.2995,393.1901,385.8987,380.3801,382.9362,387.1238,376.1925,384.1613,385.2995,393.1901" style="stroke:#181818;stroke-width:1.3020833333333333;"/><text fill="#000000" font-family="sans-serif" font-size="16.9271" lengthAdjust="spacing" textLength="59.8958" x="343.75" y="313.1447">used by</text></g><!--MD5=[8718b92fdc86fc8bc87db88931840d3d]
link core to react--><g id="link_core_react"><path d="M451.9271,57.2917 C462.9688,85.3385 481.4453,132.3177 493.4766,162.9036 " fill="none" id="core-to-react" style="stroke:#181818;stroke-width:1.3020833333333333;"/><polygon fill="#181818" points="495.9505,169.1667,496.5156,156.3551,493.5711,163.1066,486.8196,160.1621,495.9505,169.1667" style="stroke:#181818;stroke-width:1.3020833333333333;"/><text fill="#000000" font-family="sans-serif" font-size="16.9271" lengthAdjust="spacing" textLength="59.8958" x="466.1458" y="89.1864">used by</text></g><!--MD5=[f3a0bfc38fbcd79d8fc998c6cd32faa0]
link react to example--><g id="link_react_example"><path d="M506.9661,218.763 C508.4766,240.8984 510.4167,275.026 510.4167,304.6875 C510.4167,304.6875 510.4167,304.6875 510.4167,496.0938 C510.4167,552.6823 443.5286,581.7969 393.5286,595.6641 " fill="none" id="react-to-example" style="stroke:#181818;stroke-width:1.3020833333333333;"/><polygon fill="#181818" points="386.901,597.4349,399.5694,599.427,393.1889,595.747,396.8688,589.3665,386.901,597.4349" style="stroke:#181818;stroke-width:1.3020833333333333;"/><text fill="#000000" font-family="sans-serif" font-size="16.9271" lengthAdjust="spacing" textLength="59.8958" x="511.7187" y="362.6239">used by</text></g><!--MD5=[2ee79e6cfcc3509447331ba506213e7d]
link webpack to example--><g id="link_webpack_example"><path d="M386.5365,442.8255 C378.099,472.5391 363.112,525.2214 350.2604,570.3125 C349.6615,572.3958 349.0495,574.5573 348.4245,576.7318 " fill="none" id="webpack-to-example" style="stroke:#181818;stroke-width:1.3020833333333333;"/><polygon fill="#181818" points="346.5755,583.2422,354.8028,573.4052,348.3641,576.9823,344.787,570.5435,346.5755,583.2422" style="stroke:#181818;stroke-width:1.3020833333333333;"/><text fill="#000000" font-family="sans-serif" font-size="16.9271" lengthAdjust="spacing" textLength="59.8958" x="382.8125" y="501.9468">used by</text></g><!--MD5=[86dcc9fa840111b112e6d57e454f909e]
link typescript to example--><g id="link_typescript_example"><path d="M86.8359,442.9557 C86.3281,468.5286 89.5964,508.9193 111.9792,533.8542 C156.1849,583.112 233.6458,599.2969 285.8333,604.5052 " fill="none" id="typescript-to-example" style="stroke:#181818;stroke-width:1.3020833333333333;"/><polygon fill="#181818" points="292.7083,605.1432,281.5141,598.8866,286.2251,604.5488,280.563,609.2598,292.7083,605.1432" style="stroke:#181818;stroke-width:1.3020833333333333;"/><text fill="#000000" font-family="sans-serif" font-size="16.9271" lengthAdjust="spacing" textLength="59.8958" x="113.2813" y="501.9468">used by</text></g><!--MD5=[ab686fd3935feb869cba6f8caa9a61a6]
link vscode to ide--><g id="link_vscode_ide"><path d="M233.4115,380.4427 C232.1875,384.6484 231.1328,389.0234 230.4688,393.2292 C227.0573,414.9609 227.9818,420.8594 230.4688,442.7083 C231.7448,453.8802 234.5443,466.1849 237.0833,475.8724 " fill="none" id="vscode-to-ide" style="stroke:#181818;stroke-width:1.3020833333333333;"/><polygon fill="#181818" points="238.9453,482.7214,240.8931,470.0461,237.2355,476.4395,230.8421,472.7819,238.9453,482.7214" style="stroke:#181818;stroke-width:1.3020833333333333;"/><text fill="#000000" font-family="sans-serif" font-size="16.9271" lengthAdjust="spacing" textLength="59.8958" x="231.7708" y="425.1239">used by</text></g><!--MD5=[4876de85c024cd92e83375687880057a]
link ide to example--><g id="link_ide_example"><path d="M249.1667,506.7057 C259.1797,521.6146 278.6068,549.2708 298.1771,570.3125 C300.7161,573.0339 303.4375,575.7813 306.237,578.4635 " fill="none" id="ide-to-example" style="stroke:#181818;stroke-width:1.3020833333333333;"/><polygon fill="#181818" points="311.3151,583.2161,306.3034,571.412,306.5562,578.7733,299.1949,579.0261,311.3151,583.2161" style="stroke:#181818;stroke-width:1.3020833333333333;"/><text fill="#000000" font-family="sans-serif" font-size="16.9271" lengthAdjust="spacing" textLength="44.2708" x="299.4792" y="565.7489">writes</text></g><!--MD5=[7cb9b6d3410704b8a6f943ea06f5fb4a]
@startuml
skinparam ranksep 20
skinparam dpi 125

file cli
file core
file example
file language
file react
file "typescript-plugin" as typescript
file "vscode-extension" as vscode
file "webpack-loader" as webpack
circle VSCode as ide

language - -> cli : "used by"
core - -> language : "used by"
cli - -> typescript : "used by"
cli - -> vscode : "used by"
cli - -> webpack : "used by"
core - -> react : "used by"
react - -> example : "used by"
webpack - -> example : "used by"
typescript - -> example : "used by"
vscode - -> ide : "used by"
ide - -> example : writes
@enduml

PlantUML version 1.2022.7(Mon Aug 22 19:01:30 CEST 2022)
(GPL source distribution)
Java Runtime: OpenJDK Runtime Environment
JVM: OpenJDK 64-Bit Server VM
Default Encoding: UTF-8
Language: de
Country: DE
--></g></svg>